<svg xmlns="http://www.w3.org/2000/svg" width="1632" height="519" viewBox="0 0 1632 519"><defs><style>.a{fill:#ececec;stroke:#707070;}.b{stroke:none;}.c{fill:none;}</style></defs><g transform="translate(-102 -561)"><g class="a" transform="translate(102 924)"><rect class="b" width="22" height="42"/><rect class="c" x="0.5" y="0.5" width="21" height="41"/></g><g class="a" transform="translate(164 813)"><rect class="b" width="17" height="153"/><rect class="c" x="0.5" y="0.5" width="16" height="152"/></g><g class="a" transform="translate(226 744)"><rect class="b" width="18" height="91"/><rect class="c" x="0.5" y="0.5" width="17" height="90"/></g><g class="a" transform="translate(288 703)"><rect class="b" width="19" height="263"/><rect class="c" x="0.5" y="0.5" width="18" height="262"/></g><g class="a" transform="translate(366 911)"><rect class="b" width="18" height="107"/><rect class="c" x="0.5" y="0.5" width="17" height="106"/></g><g class="a" transform="translate(426 724)"><rect class="b" width="12" height="80"/><rect class="c" x="0.5" y="0.5" width="11" height="79"/></g><g class="a" transform="translate(482 655)"><rect class="b" width="13" height="89"/><rect class="c" x="0.5" y="0.5" width="12" height="88"/></g><g class="a" transform="translate(519 807)"><rect class="b" width="21" height="75"/><rect class="c" x="0.5" y="0.5" width="20" height="74"/></g><g class="a" transform="translate(598 924)"><rect class="b" width="18" height="42"/><rect class="c" x="0.5" y="0.5" width="17" height="41"/></g><g class="a" transform="translate(658 627)"><rect class="b" width="13" height="73"/><rect class="c" x="0.5" y="0.5" width="12" height="72"/></g><g class="a" transform="translate(722 744)"><rect class="b" width="15" height="113"/><rect class="c" x="0.5" y="0.5" width="14" height="112"/></g><g class="a" transform="translate(794 741)"><rect class="b" width="21" height="339"/><rect class="c" x="0.5" y="0.5" width="20" height="338"/></g><g class="a" transform="translate(846 592)"><rect class="b" width="14" height="298"/><rect class="c" x="0.5" y="0.5" width="13" height="297"/></g><g class="a" transform="translate(905 621)"><rect class="b" width="18" height="163"/><rect class="c" x="0.5" y="0.5" width="17" height="162"/></g><g class="a" transform="translate(950 670)"><rect class="b" width="20" height="410"/><rect class="c" x="0.5" y="0.5" width="19" height="409"/></g><g class="a" transform="translate(1032 945)"><rect class="b" width="17" height="21"/><rect class="c" x="0.5" y="0.5" width="16" height="20"/></g><g class="a" transform="translate(1085 846)"><rect class="b" width="25" height="234"/><rect class="c" x="0.5" y="0.5" width="24" height="233"/></g><g class="a" transform="translate(1156 779)"><rect class="b" width="23" height="187"/><rect class="c" x="0.5" y="0.5" width="22" height="186"/></g><g class="a" transform="translate(1301 689)"><rect class="b" width="18" height="391"/><rect class="c" x="0.5" y="0.5" width="17" height="390"/></g><g class="a" transform="translate(1340 824)"><rect class="b" width="16" height="256"/><rect class="c" x="0.5" y="0.5" width="15" height="255"/></g><g class="a" transform="translate(1404 648)"><rect class="b" width="22" height="318"/><rect class="c" x="0.5" y="0.5" width="21" height="317"/></g><g class="a" transform="translate(1466 900)"><rect class="b" width="14" height="66"/><rect class="c" x="0.5" y="0.5" width="13" height="65"/></g><g class="a" transform="translate(1528 561)"><rect class="b" width="22" height="153"/><rect class="c" x="0.5" y="0.5" width="21" height="152"/></g><g class="a" transform="translate(1590 561)"><rect class="b" width="17" height="363"/><rect class="c" x="0.5" y="0.5" width="16" height="362"/></g><g class="a" transform="translate(1652 813)"><rect class="b" width="23" height="153"/><rect class="c" x="0.5" y="0.5" width="22" height="152"/></g><g class="a" transform="translate(1714 824)"><rect class="b" width="20" height="153"/><rect class="c" x="0.5" y="0.5" width="19" height="152"/></g></g></svg>