<svg xmlns="http://www.w3.org/2000/svg" width="610" height="338.645" viewBox="0 0 610 338.645"><defs><style>.a{fill:#fff;stroke:#383838;stroke-width:4px;}.b,.c{fill:#383838;}.c{stroke:#707070;}.d{fill:#edeaea;}.e{fill:#eaeaea;}.f{fill:#3eccb0;}.g{fill:#cc3e98;}.h{stroke:none;}.i{fill:none;}</style></defs><g transform="translate(-970 -204)"><g class="a" transform="translate(970 204)"><rect class="h" width="610" height="306" rx="30"/><rect class="i" x="2" y="2" width="606" height="302" rx="28"/></g><rect class="b" width="196" height="30" transform="translate(1179 510)"/><path class="b" d="M0,0H316V5.29H0Z" transform="translate(1117 537.355)"/><g class="c" transform="translate(999 213)"><rect class="h" width="42" height="253"/><rect class="i" x="0.5" y="0.5" width="41" height="252"/></g><path class="d" d="M7.836,0H82.713c4.328,0,7.836,2.015,7.836,4.5S87.04,9,82.713,9H7.836C3.508,9,0,6.985,0,4.5S3.508,0,7.836,0Z" transform="translate(1072 233)"/><rect class="d" width="158" height="9" rx="4.5" transform="translate(1072 263)"/><rect class="d" width="113" height="9" rx="4.5" transform="translate(1072 353)"/><rect class="d" width="43" height="9" rx="4.5" transform="translate(1072 413)"/><rect class="d" width="75" height="9" rx="4.5" transform="translate(1072 443)"/><rect class="d" width="118" height="13" rx="5" transform="translate(1072 469)"/><rect class="d" width="21" height="13" rx="5" transform="translate(1197 469)"/><rect class="e" width="251" height="267" transform="translate(1310 220)"/><rect class="f" width="9" height="21" rx="3" transform="translate(1323 280)"/><rect class="f" width="6" height="21" rx="3" transform="translate(1350 259)"/><rect class="f" width="9" height="23" rx="3" transform="translate(1371 247)"/><rect class="g" width="7" height="11" rx="3" transform="translate(1398 269)"/><rect class="g" width="7" height="32" rx="3" transform="translate(1422 269)"/><rect class="f" width="4" height="4" rx="2" transform="translate(1449 297)"/><rect class="f" width="4" height="8" rx="2" transform="translate(1473 280)"/><rect class="f" width="4" height="21" rx="2" transform="translate(1498 259)"/><rect class="f" width="4" height="41" rx="2" transform="translate(1522 239)"/><rect class="f" width="4" height="69" rx="2" transform="translate(1546 232)"/></g></svg>