<svg xmlns="http://www.w3.org/2000/svg" width="300.879" height="95.602" viewBox="0 0 300.879 95.602"><defs><style>.a{fill:#ef9122;}.b{fill:#f26e21;}.c{fill:#f44500;}.d{fill:#595a5b;}.e{fill:#3b3d3f;}</style></defs><g transform="translate(-375 -155.81)"><g transform="translate(374 133.71)"><g transform="translate(135.425 22.585)"><circle class="a" cx="25.235" cy="25.235" r="25.235"/></g><g transform="translate(135.425 22.585)"><path class="b" d="M28.7,47.435A25.235,25.235,0,1,1,53.935,72.67" transform="translate(-28.7 -22.2)"/></g><g transform="translate(143.19 22.585)"><path class="c" d="M30.3,29.479A25.05,25.05,0,1,1,65.726,64.905" transform="translate(-30.3 -22.2)"/></g><g transform="translate(1 22.1)"><g transform="translate(0 1.941)"><path class="d" d="M14.588,22.5H1V70.058H14.588c7.279,0,12.618-1.941,16.985-5.338a24,24,0,0,0,8.735-18.441C40.308,32.206,30.117,22.5,14.588,22.5ZM25.75,58.411c-2.912,2.426-6.794,3.882-12.618,3.882H10.22V30.75h2.426c5.823,0,9.706.971,12.618,3.882A15.5,15.5,0,0,1,30.6,46.279,14.507,14.507,0,0,1,25.75,58.411Z" transform="translate(-1 -22.5)"/></g><g transform="translate(43.676 1.941)"><rect class="d" width="9.22" height="47.558"/></g><g transform="translate(56.779 1.456)"><path class="d" d="M32.112,41.326c-5.823-1.941-7.279-3.4-7.279-5.823,0-2.912,2.912-5.338,6.794-5.338,2.912,0,5.338.971,7.765,3.882l4.853-6.309A21.143,21.143,0,0,0,30.17,22.4c-8.25,0-15.044,5.823-15.044,13.588,0,6.794,2.912,9.706,11.647,13.1,3.882,1.456,5.338,1.941,6.309,2.912a5.338,5.338,0,0,1,2.912,4.853c0,3.882-2.912,6.794-7.279,6.794a11.318,11.318,0,0,1-10.191-6.309L12.7,63.164c4.368,6.309,9.706,9.221,16.5,9.221,9.706,0,16.5-6.309,16.5-15.529C45.7,48.606,42.788,45.209,32.112,41.326Z" transform="translate(-12.7 -22.4)"/></g><g transform="translate(92.69)"><path class="e" d="M20.1,47.82c0,14.073,11.162,24.75,25.235,24.75,3.882,0,7.279-.971,11.647-2.912V58.5C53.1,62.379,49.7,63.835,45.82,63.835c-9.22,0-16.015-6.794-16.015-16.5,0-9.22,6.794-16.5,15.529-16.5,4.368,0,7.765,1.456,11.647,5.338V25.012A24.386,24.386,0,0,0,45.335,22.1C31.747,23.071,20.1,34.232,20.1,47.82Z" transform="translate(-20.1 -22.1)"/></g><g transform="translate(182.954 1.941)"><path d="M61.509,54.529,48.891,22.5H38.7L58.6,71.514h5.338L84.8,22.5H74.611Z" transform="translate(-38.7 -22.5)"/></g><g transform="translate(232.939 1.941)"><path d="M49,70.058H75.691V62.294H58.706v-13.1h16.5v-8.25h-16.5V30.75H75.691V22.5H49Z" transform="translate(-49 -22.5)"/></g><g transform="translate(265.938 1.941)"><path class="d" d="M75.7,50.161c7.279-1.456,11.162-6.309,11.162-13.588,0-8.735-6.309-14.073-16.985-14.073H55.8V70.058h9.22V51.132h1.456l13.1,18.926H90.741Zm-7.765-5.823H65.02V29.779h2.912c5.823,0,9.22,2.426,9.22,7.279S73.756,44.338,67.932,44.338Z" transform="translate(-55.8 -22.5)"/></g></g><g transform="translate(1 23.556)"><g transform="translate(0 0.485)"><path class="d" d="M14.588,22.5H1V70.058H14.588c7.279,0,12.618-1.941,16.985-5.338a24,24,0,0,0,8.735-18.441C40.308,32.206,30.117,22.5,14.588,22.5ZM25.75,58.411c-2.912,2.426-6.794,3.882-12.618,3.882H10.22V30.75h2.426c5.823,0,9.706.971,12.618,3.882A15.5,15.5,0,0,1,30.6,46.279,14.507,14.507,0,0,1,25.75,58.411Z" transform="translate(-1 -22.5)"/></g><g transform="translate(43.676 0.485)"><rect class="d" width="9.22" height="47.558"/></g><g transform="translate(56.779)"><path class="d" d="M32.112,41.326c-5.823-1.941-7.279-3.4-7.279-5.823,0-2.912,2.912-5.338,6.794-5.338,2.912,0,5.338.971,7.765,3.882l4.853-6.309A21.143,21.143,0,0,0,30.17,22.4c-8.25,0-15.044,5.823-15.044,13.588,0,6.794,2.912,9.706,11.647,13.1,3.882,1.456,5.338,1.941,6.309,2.912a5.338,5.338,0,0,1,2.912,4.853c0,3.882-2.912,6.794-7.279,6.794a11.318,11.318,0,0,1-10.191-6.309L12.7,63.164c4.368,6.309,9.706,9.221,16.5,9.221,9.706,0,16.5-6.309,16.5-15.529C45.7,48.606,42.788,45.209,32.112,41.326Z" transform="translate(-12.7 -22.4)"/></g><g transform="translate(93.16 5.338)"><path class="d" d="M45.447,67.176c3.882,0,7.279-.971,11.647-2.912V53.1c-3.882,3.882-7.279,5.338-11.162,5.338-9.22,0-16.015-6.794-16.015-16.5a18.148,18.148,0,0,1,4.853-12.132L28.462,23.5a25.252,25.252,0,0,0-8.25,18.441C19.727,56.5,30.888,67.176,45.447,67.176Z" transform="translate(-20.197 -23.5)"/></g><g transform="translate(265.938 0.485)"><path d="M75.7,50.161c7.279-1.456,11.162-6.309,11.162-13.588,0-8.735-6.309-14.073-16.985-14.073H55.8V70.058h9.22V51.132h1.456l13.1,18.926H90.741Zm-7.765-5.823H65.02V29.779h2.912c5.823,0,9.22,2.426,9.22,7.279S73.756,44.338,67.932,44.338Z" transform="translate(-55.8 -22.5)"/></g></g><g transform="translate(69.426 89.07)"><path class="b" d="M15.1,62.591V35.9L33.541,54.826V37.356h3.882V64.047L18.982,45.12v17.47Z" transform="translate(-15.1 -35.9)"/><g transform="translate(27.661 1.456)"><path class="b" d="M34.873,40.082H24.682v5.823h9.706v3.882H24.682v8.25H34.873v3.4H20.8V36.2H34.873Z" transform="translate(-20.8 -36.2)"/></g><g transform="translate(44.161 1.941)"><path class="b" d="M33.906,39.7V61.05H30.023V39.7H24.2V36.3H39.729v3.4Z" transform="translate(-24.2 -36.3)"/></g><g transform="translate(61.632 0.971)"><path class="b" d="M31.682,37.071l6.309,16.985L44.785,36.1l6.309,17.956,6.794-16.985h4.853L51.579,63.761,45.27,45.806,38.476,63.761,27.8,37.071Z" transform="translate(-27.8 -36.1)"/></g><g transform="translate(97.058 0.971)"><path class="b" d="M35.1,49.2a13.04,13.04,0,1,1,13.1,13.1,11.7,11.7,0,0,1-8.735-3.4A11.57,11.57,0,0,1,35.1,49.2Zm3.882,0A8.811,8.811,0,0,0,41.894,56,8.543,8.543,0,0,0,48.2,58.909,9.581,9.581,0,0,0,55,56,8.811,8.811,0,0,0,57.909,49.2,8.811,8.811,0,0,0,55,42.409,8.811,8.811,0,0,0,48.2,39.5a9.581,9.581,0,0,0-6.794,2.912A11.6,11.6,0,0,0,38.982,49.2Z" transform="translate(-35.1 -36.1)"/></g><g transform="translate(128.116 1.456)"><path class="b" d="M50.235,50.759,58,61.435H53.147L45.868,51.244h-.485V61.435H41.5V36.2h4.368c3.4,0,5.823.485,7.279,1.941a7.793,7.793,0,0,1,2.426,5.338,5.932,5.932,0,0,1-1.456,4.368C53.147,49.788,51.691,50.759,50.235,50.759Zm-4.853-2.912h.971c3.4,0,5.338-1.456,5.338-3.882s-1.941-3.882-5.338-3.882H44.9v7.765Z" transform="translate(-41.5 -36.2)"/></g><g transform="translate(147.528 0.971)"><path class="b" d="M49.868,46.776l9.706-10.191h4.853L53.265,47.747,64.426,61.335H59.573L50.353,50.173l-.971.971V61.335H45.5V36.1h3.882V46.776Z" transform="translate(-45.5 -36.1)"/></g></g><g transform="translate(233.939 45.394)"><path class="e" d="M67.441,45.341H58.706V36.606L49,26.9V53.106H75.206Z" transform="translate(-49 -26.9)"/></g><g transform="translate(183.954 24.041)"><path class="e" d="M72.185,27.353,61.509,54.529,48.891,22.5H38.7L58.6,71.514h5.338L79.464,34.632Z" transform="translate(-38.7 -22.5)"/></g></g></g></svg>