<svg xmlns="http://www.w3.org/2000/svg" width="248.334" height="122.151" viewBox="0 0 248.334 122.151"><defs><style>.a{fill:rgba(214,151,151,0);stroke:#0a4bff;stroke-linecap:round;stroke-miterlimit:10;stroke-width:1.25px;}.b{fill:#fff;stroke:#383838;stroke-width:5px;}.c{fill:#696262;font-size:29px;font-family:ArialRoundedMTBold, Arial Rounded MT;}</style></defs><g transform="translate(-1389.954 -354.5)"><path class="a" d="M2.719,27.491C18.515,21.729,64.046,4,64.046,4l-9.06,50.085a3.292,3.292,0,0,1-5.343,1.773l-14.17-11.3L25.484,53.42,27.11,38.572l30.2-27.258L29.647,27.807l-9.505,5.667,2.323,12.632L14.8,34.361,3.184,30.815C1.326,30.15,1.093,27.934,2.719,27.491Z" transform="translate(1388.954 419.371)"/><path class="b" d="M42.329,60.658c2.764-10.438,0-16.985,0-16.985H54.41c-2.827,1.557-5.493,5.348-7.632,9.139-2.788,4.939-4.685,9.878-4.891,9.877A7.527,7.527,0,0,1,42.329,60.658ZM54.41,43.673a4.683,4.683,0,0,1,5.043,0Zm-32.075-1.5a19.835,19.835,0,0,1,0-39.67h175.9a19.835,19.835,0,1,1,0,39.67Z" transform="translate(1417.712 354.5)"/><text class="c" transform="translate(1448.212 387.19)"><tspan x="0" y="0">Try it out ?!</tspan></text></g></svg>