<svg xmlns="http://www.w3.org/2000/svg" width="312" height="112.69" viewBox="0 0 312 112.69"><defs><style>.a,.b,.c{fill:rgba(214,151,151,0);}.b,.c,.d{stroke:#0a4bff;stroke-miterlimit:10;stroke-width:2px;}.b{stroke-linecap:round;}.d{fill:none;}.e{fill:#fff;stroke:#383838;stroke-width:5px;}.f{fill:#696262;font-size:29px;font-family:ArialRoundedMTBold, Arial Rounded MT;}</style></defs><g transform="translate(-1144.5 -113.31)"><rect class="a" width="50" height="50" transform="translate(1156 176)"/><circle class="b" cx="24" cy="24" r="24" transform="translate(1157 177)"/><ellipse class="b" cx="12" cy="24" rx="12" ry="24" transform="translate(1169 177)"/><path class="c" d="M43.635,9.563C39.234,12.271,32.521,14,25,14c-7.417,0-14.049-1.682-18.451-4.325" transform="translate(1156 176)"/><line class="d" y2="48" transform="translate(1181 177)"/><path class="e" d="M59.22,60.658c3.936-10.438,0-16.985,0-16.985H76.426C72.4,45.23,68.6,49.022,65.557,52.813c-3.97,4.939-6.672,9.878-6.965,9.877C58.49,62.69,58.682,62.084,59.22,60.658ZM76.426,43.673a9.116,9.116,0,0,1,7.181,0Zm-54.09-1.5a19.835,19.835,0,0,1,0-39.67h267.33a19.835,19.835,0,1,1,0,39.67Z" transform="translate(1144.5 113.31)"/><text class="f" transform="translate(1190 146)"><tspan x="0" y="0">Should OI sell?</tspan></text><text class="f" transform="translate(1190 146)"><tspan x="0" y="0">Should OI sell?</tspan></text></g></svg>