<svg xmlns="http://www.w3.org/2000/svg" width="220.5" height="156.19" viewBox="0 0 220.5 156.19"><defs><style>.a{fill:#fff;stroke:#383838;stroke-width:5px;}.b{fill:#696262;font-size:20px;font-family:ArialRoundedMTBold, Arial Rounded MT;}.c{fill:#3647e0;}</style></defs><g transform="translate(-1036.75 -269.81)"><path class="a" d="M42.314,93.028c2.763-16.249,0-26.438,0-26.438H54.393c-2.827,2.423-5.491,8.325-7.631,14.226-2.787,7.688-4.683,15.376-4.888,15.375A17.615,17.615,0,0,1,42.314,93.028ZM54.393,66.589c1.649-1.414,3.353-1.644,5.041,0ZM33.375,64.25a30.875,30.875,0,0,1,0-61.75H187.125a30.875,30.875,0,0,1,0,61.75Z" transform="translate(1036.75 269.809)"/><text class="b" transform="translate(1073.75 298)"><tspan x="0" y="0">we need to stop </tspan><tspan x="0" y="23">the FUD</tspan></text><path class="c" d="M53.327,9.22A19.545,19.545,0,0,0,27.773,38.787a11.742,11.742,0,0,1,3.714,8.029,1.1,1.1,0,0,0,.028.169v10.03a1,1,0,0,0,1,1h1c.406,2.907,2.543,5.133,5.117,5.133h4.542c2.574,0,4.71-2.226,5.116-5.133h1a1,1,0,0,0,1-1V46.826s0,0,0-.007a10.987,10.987,0,0,1,3.806-8.092A19.531,19.531,0,0,0,53.327,9.22ZM37.362,28.206H35.825a1.537,1.537,0,1,1,1.537-1.537Zm7.076-1.537a1.538,1.538,0,1,1,1.538,1.537H44.44Zm-.6,21.08h4.449v8.267H33.516V47.748H43.1m-3.734-2V30.207h3.079l.023,15.541Zm3.808,15.4H38.629c-1.493,0-2.746-1.337-3.093-3.133H46.263C45.916,59.813,44.663,61.149,43.171,61.149Zm9.571-23.9a13.133,13.133,0,0,0-4.4,8.5H44.465l-.022-15.541h1.533a3.538,3.538,0,1,0-3.539-3.537l0,1.536H39.363V26.669a3.538,3.538,0,1,0-3.538,3.538h1.537V45.748H33.379A13.581,13.581,0,0,0,29.115,37.3a17.551,17.551,0,1,1,23.626-.053Z" transform="translate(1039.548 362.85)"/></g></svg>